# xmcd
#
# Track frame offsets:
#	150
#	12423
#	25026
#	35393
#	49414
#	62681
#	76117
#	89828
#	102069
#	114937
#	127607
#	140286
#	155062
#	168598
#	181334
#	194882
#	203710
#	214488
#	228209
#	238980
#	249535
#	258096
#	267928
#	279404
#	293222
#	305623
#	317660
#	330946
#
# Disc length: 4542 seconds
#
# Revision: 0
# Processed by: cddbd v1.5.2PL0 Copyright (c) Steve Scherf et al.
# Submitted via: EasyCDDAExtractor 10.0.2.1
#
DISCID=8e11bc1c
DTITLE=Various Artist - Memphis Blues (Important Postwar Recordings) - Disc B
DYEAR=2006
DGENRE=Blues
TTITLE0=Howling Wolf - Moanin' At Midnight
TTITLE1=Howling Wolf - Bluebird
TTITLE2=Earl Hooker - Move On Down The Line
TTITLE3=Earl Hooker - The Hucklebuck
TTITLE4=Walter Horton - Walter's Instrumental
TTITLE5=Walter Horton - Grandmother Got Grandfather Told
TTITLE6=Willie Nix - Midnight Showers Of Rain
TTITLE7=Willie Nix - Prison Bound Blues
TTITLE8=Rufus Thomas - Bear Cat
TTITLE9=Rufus Thomas - Married Woman
TTITLE10=Rosco Gordon - Roscoe's Boogie
TTITLE11=Rosco Gordon - City Women
TTITLE12=Earl Forest - Baby, Baby
TTITLE13=Earl Forest - Rock The Bottle
TTITLE14=Little Jr. Parker - Bad Women, Bad Whiskey
TTITLE15=Little Jr. Parker - You're My Angel
TTITLE16=Bobby Bland - Good Lovin'
TTITLE17=Bobby Bland - Drifting From Town To Town
TTITLE18=James Cotton - My Baby
TTITLE19=James Cotton - Straighten Up Baby
TTITLE20=Shy Guy Douglas - Work With Her Boy
TTITLE21=Shy Guy Douglas - Detriot Arrow Blues
TTITLE22=Houston Boines - Carry My Business On (Take 1)
TTITLE23=Houston Boines - Crying In The Courthouse (Take 1)
TTITLE24=Charlie Booker - Walked All Night
TTITLE25=Charlie Booker - Baby I'm Coming Home
TTITLE26=Pat Hare - I'm Gonna Murder My Baby
TTITLE27=Pat Hare - Bonus Pay
EXTD=
EXTT0=
EXTT1=
EXTT2=
EXTT3=
EXTT4=
EXTT5=
EXTT6=
EXTT7=
EXTT8=
EXTT9=
EXTT10=
EXTT11=
EXTT12=
EXTT13=
EXTT14=
EXTT15=
EXTT16=
EXTT17=
EXTT18=
EXTT19=
EXTT20=
EXTT21=
EXTT22=
EXTT23=
EXTT24=
EXTT25=
EXTT26=
EXTT27=
PLAYORDER=
